# xmcd
#
# Track frame offsets:
#	150
#	12930
#	22040
#	35398
#	52323
#	61463
#	65338
#	78947
#	89916
#	105174
#	115132
#	125764
#	139321
#	160923
#	175086
#	186397
#	201429
#	212216
#	219691
#	229180
#	234161
#	241441
#	247410
#	263194
#	273600
#	283914
#	294513
#	309148
#	320599
#	335143
#
# Disc length: 4562 seconds
#
# Revision: 0
# Processed by: cddbd v1.5.2PL0 Copyright (c) Steve Scherf et al.
# Submitted via: EasyCDDAExtractor 16.0.6.1
#
DISCID=dd11d01e
DTITLE=Συλλογικός δίσκος - Παραδοσιακά κάλαντα
DYEAR=2010
DGENRE=Κάλαντα
TTITLE0=Παιδ. χορ. Γιάννη Τσιαμούλη - Κάλαντον Πελοποννήσου[αν.Χαραμάδος Παπαδ
TTITLE0=/ντη,δ.Γ.Τσιαμούλης]
TTITLE1=Κονιτοπούλου Στέλλα - Χριστούγεννα-Πρωτούγεννα [παραδ. Αστυπάλαιας]
TTITLE2=Παιδ. χορ. Γιάννη Τσιαμούλη - Κάλαντον Κρήτης κ κοντυλιές [παραδ. διασ
TTITLE2=κ. Γ. Τσιαμούλης]
TTITLE3=Θαλασσινός Παντελής - Καλησπερίζω φέρνοντας [Χίου]
TTITLE4=Παιδ. χορ. Γιάννη Τσιαμούλη - Κάλαντον Κω Δωδεκανήσου [παραδ. διασκ. Γ
TTITLE4=Τσιαμούλης]
TTITLE5=Σαμίου Δόμνα - Εις αυτό το νέον έτος [παραδ. Μικρασίας]
TTITLE6=Παιδ. χορ. Γιάννη Τσιαμούλη - Κάτου στα Ιεροσόλυμα [παραδ. Σάμου]
TTITLE7=Κονιτοπούλου Στέλλα - Καλημέρα, καλημέρα [παραδ. Αίγινας]
TTITLE8=Παιδ. χορ. Γιάννη Τσιαμούλη - Κάλαντον Κερασούντος και Τικ [παραδ. δια
TTITLE8=σκ. Γ. Τσιαμούλης]
TTITLE9=Κονιτοπούλου Στέλλα - Άγιος Βασίλης έρχεται [παρα. Φούρνων Ικαρίας]
TTITLE10=Παιδ. χορ. Γιάννη Τσιαμούλη - Ταχιά, ταχιά 'ναι αρχιμενιά [παραδ. Ανα
TTITLE10=τολ. Κρήτης]
TTITLE11=Κονιτοπούλου Στέλλα - Αν είναι με το θέλημα [παραδ. Πάρου]
TTITLE12=Παιδ. χορ. Γιάννη Τσιαμούλη - Κάλαντον Θράκης [ζωναρ. αν.Χαραμάδος Πα
TTITLE12=π/ντη,δ.ΓΤσιαμούλης]
TTITLE13=Κονιτοπούλου Στέλλα - Καλησπέρα σ' αφέντη μου [Αρχαγγέλου Ρόδου]
TTITLE14=Παιδ. χορ. Γιάννη Τσιαμούλη - Κάλαντον Ραιδεστού Ανατ. Θράκης [παρ., 
TTITLE14=διασκ. Γ. Τσιαμούλης]
TTITLE15=Κονιτοπούλου Στέλλα - Δεν είναι τούτη εορτή [Απολλώνων Ρόδου]
TTITLE16=Παιδ. χορ. Γιάννη Τσιαμούλη - Ο μήνας έχει σήμερα [παραδ. Πάτμου]
TTITLE17=Κονιτοπούλου Στέλλα-Κόττορος Μανώλης - Σήκω κυρά να στολιστείς [παρ. 
TTITLE17=Νάξου]
TTITLE18=Κονιτοπούλου Στέλλα - Εδώ μάς είπαν κι ήρθαμε [Λήμνου]
TTITLE19=Χορωδία - Κάλαντα Χριστουγέννων [παραδ. διασκ. Τ.Διακογιώργης]
TTITLE20=Χορωδία - Κάλαντα Πρωτοχρονιάς [παραδ. διασκ. Τ.Διακογιώργης]
TTITLE21=Παιδική χορωδία - Ερουρέμ, ερουρέμ [βυζαντινά Χριστουγέννων]
TTITLE22=Χορωδία - Άγια νύχτα [F.Gruber-J.Mohr, διασκ. Τ.Διακογιώργης]
TTITLE23=Χορωδία - Το τύμπανο [Τ.Διακογιώργης-Θ.Κούγιαλης-Μάϊκλ Σταυρίδης]
TTITLE24=Χορωδία - Χριστούγεννα [Τ.Διακογιώργης-Θ.Κούγιαλης-Μάϊκλ Σταυρίδης]
TTITLE25=Χορωδία - Οι καμπάνες των Χριστουγέννων[Τ.Διακογιώργης-Θ.Κούγιαλης-Μ.
TTITLE25=Σταυρίδης]
TTITLE26=Χορωδία - Των βασιλιάδων ο Βασιλιάς[Τ.Διακογιώργης-Θ.Κούγιαλης-Μ.Σταυ
TTITLE26=ρίδης]
TTITLE27=Χορωδία - Το έλκηθρο [Τ.Διακογιώργης-Θ.Κούγιαλης-Μ.Σταυρίδης]
TTITLE28=Χορωδία - Ελάτε με πίστη [Τ.Διακογιώργης-Θ.Κούγιαλης-Μ.Σταυρίδης]
TTITLE29=Χορωδία - Κλινγκ γκλόκεν κλινγκ [Τ.Διακογιώργης-Θ.Κούγιαλης-Μ.Σταυρίδ
TTITLE29=ης]
EXTD=
EXTT0=
EXTT1=
EXTT2=
EXTT3=
EXTT4=
EXTT5=
EXTT6=
EXTT7=
EXTT8=
EXTT9=
EXTT10=
EXTT11=
EXTT12=
EXTT13=
EXTT14=
EXTT15=
EXTT16=
EXTT17=
EXTT18=
EXTT19=
EXTT20=
EXTT21=
EXTT22=
EXTT23=
EXTT24=
EXTT25=
EXTT26=
EXTT27=
EXTT28=
EXTT29=
PLAYORDER=
